# xmcd
#
# Track frame offsets: 
#        150
#        20915
#        36331
#        59651
#        78459
#        95796
#        121958
#        139742
#        157803
#        181250
#        198919
#        218004
#        238862
#        252649
#        271320
#        289006
#
# Disc length: 4182 seconds
#
# Revision: 0
# Processed by: cddbd v1.5.2PL0 Copyright (c) Steve Scherf et al.
# Submitted via: ExactAudioCopyFreeDBPlugin 1.0
#
DISCID=f1105410
DTITLE=Damion Davis - Lichtermeer
DYEAR=2007
DGENRE=Rap
TTITLE0=Ruhestörung
TTITLE1=360 Grad
TTITLE2=Bandecho
TTITLE3=Egal wohin
TTITLE4=Licht am Meer
TTITLE5=Family First
TTITLE6=Augenmerk
TTITLE7=Feuer
TTITLE8=Eiszeit
TTITLE9=2 da Beat ya feat. Mr. Mick and Sir Serch
TTITLE10=Miss Berlin
TTITLE11=Risiko
TTITLE12=Betrunkene Mädchen
TTITLE13=Nutze den Tag
TTITLE14=Wilkommen im All
TTITLE15=Gottes Wille
EXTD=
EXTT0=
EXTT1=
EXTT2=
EXTT3=
EXTT4=
EXTT5=
EXTT6=
EXTT7=
EXTT8=
EXTT9=
EXTT10=
EXTT11=
EXTT12=
EXTT13=
EXTT14=
EXTT15=
PLAYORDER=
